<svg xmlns="http://www.w3.org/2000/svg" xmlns:xlink="http://www.w3.org/1999/xlink" preserveAspectRatio="xMidYMid meet" version="1.0" viewBox="21.4 7.9 57.1 84.4" zoomAndPan="magnify" style="fill: rgb(255, 255, 255);" original_string_length="957"><g data-name="Layer 20" id="__id198_svai2iivfr"><path d="M76.563,41.151a2,2,0,0,0-2,2v6.434a24.564,24.564,0,1,1-49.128,0V43.151a2,2,0,0,0-4,0v6.434A28.6,28.6,0,0,0,48,78.071v10.19H35.576a2,2,0,1,0,0,4H64.423a2,2,0,0,0,0-4H52V78.071A28.6,28.6,0,0,0,78.563,49.585V43.151A2,2,0,0,0,76.563,41.151Z" style="fill: inherit;"/><path d="M36.88,48h4.083a2,2,0,0,1,0,4h-9.6a18.638,18.638,0,0,0,37.269,0H60.045a2,2,0,0,1,0-4h8.609V41.954H60.045a2,2,0,0,1,0-4h8.609V31.909H60.045a2,2,0,0,1,0-4h8.609V26.393a18.655,18.655,0,0,0-37.309,0v1.516h9.618a2,2,0,0,1,0,4H31.345v6.045h9.618a2,2,0,0,1,0,4H31.345V48H36.88ZM48,29.909a2,2,0,1,1,4,0v2.274a2,2,0,0,1-4,0Zm0,8.617a2,2,0,0,1,4,0V40.8a2,2,0,0,1-4,0Zm0,8.617a2,2,0,0,1,4,0v2.274a2,2,0,0,1-4,0Z" style="fill: inherit;"/></g></svg>